<svg t="1718426995454" class="icon" viewBox="0 0 1024 1024" version="1.1" xmlns="http://www.w3.org/2000/svg" p-id="7624" width="200" height="200"><path d="M821.166326 286.379778l-53.55975-62.088373c-3.866309-16.033811-41.051104-43.325403-20.12755-52.422601 3.286363-1.36458 7.118557-1.023435 10.348062 0.90972 6.709183 3.866309 41.619679 36.729935 43.780264 17.170961 0.352516-3.024818-1.068921-6.618211-3.866309-9.779488-6.481753-7.164043-40.709959-40.255099-10.461778-44.007693 3.184019-0.432117 6.822898 0.807376 10.006918 3.411449 4.093739 3.411449 32.408766 33.887061 36.84365 17.057246 0.773262-2.911103-0.375259-6.663697-3.070304-10.006918l-20.696125-25.699583c-2.547215-3.11579-3.456935-6.936613-2.388014-10.120632 10.575492-32.636196 67.319262 42.301969 61.974658 8.528623-1.13715-7.618903-19.90012-25.358438-25.244723-33.204771-2.331157-3.377335-2.979332-7.300501-1.705725-10.348063 13.986941-33.204771 60.610079 43.552833 61.064939 12.167502 0.068229-2.12647-1.626124-5.742606-4.548599-9.665772l-21.150984-28.656172a9.381485 9.381485 0 0 1-0.568575-10.234348c15.920096-27.405308 52.650031 43.666548 59.245499 14.896661 0.636804-2.695045-0.68229-6.413524-3.525164-9.893202l-21.037269-25.699583c-2.478986-3.03619-3.34322-6.822898-2.2743-10.006917 8.756053-27.177878 51.512881 17.39839 62.429518 25.131008 3.274991 2.331157 5.435576 5.481062 6.026894 8.756052l9.779487 56.402625c0.579946 3.297734-0.22743 7.0617-2.274299 10.575492l-86.764522 148.170605c-4.275683 7.323244-12.224359 12.804306-21.946989 15.124091l-56.28891 13.532081z" fill="#357DA2" p-id="7625"></path><path d="M767.606576 224.291405l53.55975 62.088373-267.116462 279.39768-36.84365 35.592785c-13.793626 13.270537-25.699583 14.248486-35.706501 2.956589l-41.505964-46.736852c-4.036881-4.571342-3.002075-12.429046 2.388015-18.08068l91.426835-95.634289c82.215923-63.111808 158.632382-147.033455 233.797977-219.583606z" fill="#1D4D59" p-id="7626"></path><path d="M533.808599 443.875011l-91.426835 95.634289c-5.39009 5.651634-6.424896 13.509338-2.388015 18.08068l41.505964 46.736852c10.006917 11.291896 21.912875 10.313948 35.706501-2.956589l36.84365-35.592785c10.837037 45.178957 36.275075 69.138701 76.302744 71.86786 2.649559 0.147829 6.220209-0.68229 10.689207-2.501729l50.034586-20.696124c3.070304-1.21675 6.891127-0.659547 10.234348 1.478294 28.280913 18.501425 31.874306 41.278534 10.802922 68.342697-27.439422 35.331241-68.035666 53.218606-121.788732 53.673465-3.786708 0-7.414216 1.023435-10.461777 2.956589-80.623913 51.171736-57.653489 172.619323-122.925882 238.232861-71.413001 71.640431-199.910916 47.646572-276.327375-3.411449-109.052655-72.891295-201.275496-253.129521-104.504057-369.914795 80.169053-96.430294 241.87174-48.101432 290.655461-177.054207 21.037269-55.60662 27.291593-89.379966 88.129101-126.905906 23.880144-14.703346 48.704121-13.043107 74.483305 5.003459a5.685748 5.685748 0 0 1 1.36458 7.960048c-31.953906 46.623137-76.075314 90.175971 3.070304 129.06649z m-47.532857 261.612658a13.645796 13.645796 0 0 0-0.056858-19.29743L367.762001 568.574846a13.645796 13.645796 0 0 0-19.29743 0.068229l-0.477603 0.488974a13.645796 13.645796 0 0 0 0.068229 19.297431l118.445512 117.626764a13.645796 13.645796 0 0 0 19.308802-0.068229l0.477602-0.488975zM311.143318 624.693183a13.304651 13.304651 0 0 0-18.808456 0l-0.488974 0.488975a13.304651 13.304651 0 0 0 0 18.808456l118.036138 118.036138a13.304651 13.304651 0 0 0 18.819827 0l0.488974-0.477603a13.304651 13.304651 0 0 0 0-18.808456l-118.036138-118.036138z m-79.122876 89.038821a6.822898 6.822898 0 0 0-9.643029-0.011371l-33.1934 33.068313a6.822898 6.822898 0 0 0-0.011371 9.654401l109.484772 109.860031a6.822898 6.822898 0 0 0 9.64303 0.022743l33.193399-33.068313a6.822898 6.822898 0 0 0 0.011372-9.654401l-109.484773-109.871403z" fill="#357DA2" p-id="7627"></path><path d="M358.08447 558.950601m9.682658 9.615294l118.45118 117.627108q9.682658 9.615295 0.067363 19.297953l-0.480765 0.484133q-9.615295 9.682658-19.297953 0.067362l-118.451179-117.627107q-9.682658-9.615295-0.067363-19.297953l0.480764-0.484133q9.615295-9.682658 19.297953-0.067363Z" fill="#FFC133" p-id="7628"></path><path d="M282.43021 634.586948m9.40781-9.407809l0.482451-0.482452q9.407809-9.407809 18.815619 0l118.039862 118.039863q9.407809 9.407809 0 18.815618l-0.482451 0.482452q-9.407809 9.407809-18.815619 0l-118.039862-118.039863q-9.407809-9.407809 0-18.815618Z" fill="#FFC133" p-id="7629"></path><path d="M184.342587 751.607467m4.832931-4.81609l33.186123-33.070483q4.832931-4.81609 9.64902 0.016841l109.485776 109.868621q4.81609 4.832931-0.016841 9.649021l-33.186123 33.070483q-4.832931 4.81609-9.649021-0.01684l-109.485775-109.868622q-4.81609-4.832931 0.016841-9.649021Z" fill="#FFC133" p-id="7630"></path></svg>
